<?xml version="1.0" standalone="no"?>
<!DOCTYPE svg PUBLIC "-//W3C//DTD SVG 20010904//EN"
 "http://www.w3.org/TR/2001/REC-SVG-20010904/DTD/svg10.dtd">
<svg version="1.0" xmlns="http://www.w3.org/2000/svg"
 width="600.000000pt" height="206.000000pt" viewBox="0 0 600.000000 206.000000"
 preserveAspectRatio="xMidYMid meet">

<g transform="translate(0.000000,206.000000) scale(0.100000,-0.100000)"
fill="#000000" stroke="none">
<path d="M149 2032 c-15 -12 -30 -35 -34 -51 -4 -20 -14 -31 -31 -35 -44 -11
-74 -50 -74 -96 0 -23 5 -50 10 -61 18 -32 68 -52 119 -46 l46 6 77 -76 77
-76 -30 -38 c-53 -67 -108 -189 -131 -291 l-22 -96 -48 -23 c-26 -12 -48 -26
-48 -29 0 -4 23 -10 50 -14 l50 -7 0 -50 c0 -103 59 -278 128 -379 l31 -45
-67 -68 c-42 -43 -72 -65 -81 -62 -8 3 -34 9 -58 12 -39 5 -45 3 -78 -30 -28
-28 -35 -43 -35 -75 0 -49 28 -86 75 -102 23 -7 35 -18 35 -29 0 -29 37 -69
71 -76 29 -7 30 -8 13 -26 -16 -18 -16 -19 14 -19 27 0 31 -4 34 -32 2 -19 9
-33 16 -33 7 0 17 -6 21 -14 5 -7 14 -10 20 -7 6 4 16 4 23 0 7 -4 36 -8 65
-8 l53 -1 -6 50 c-6 50 -6 51 40 93 l46 42 464 0 465 0 88 -44 c122 -60 216
-88 270 -80 57 8 104 40 126 87 l19 37 290 0 290 0 87 -48 c125 -70 170 -87
222 -87 56 0 88 20 139 88 l35 47 270 0 270 0 45 -31 c25 -16 77 -46 115 -66
119 -62 187 -47 250 53 l28 44 267 0 c246 0 269 -1 291 -19 53 -42 219 -135
287 -163 222 -89 444 -45 648 128 l63 54 195 0 c128 0 204 4 221 12 33 15 42
51 21 83 -16 25 -17 25 -176 25 -88 0 -160 2 -160 5 0 11 53 80 61 79 5 -1 16
-2 24 -2 11 -2 14 -9 9 -27 -3 -14 -2 -25 4 -25 10 0 176 40 179 44 2 1 -29
31 -68 65 -64 58 -71 62 -76 42 -5 -19 -22 -26 -26 -11 0 3 12 41 27 85 16 44
30 86 32 94 4 11 8 10 18 -5 12 -15 16 -16 29 -5 9 7 20 10 25 7 6 -3 15 1 22
9 7 8 27 17 46 21 l33 6 -28 37 c-15 20 -33 54 -39 76 -7 22 -29 62 -50 89
l-39 48 23 25 c59 64 56 180 -7 243 -24 24 -39 30 -73 30 -49 0 -76 -17 -106
-65 -12 -19 -26 -35 -31 -35 -5 0 -9 23 -9 51 l0 50 -47 -3 -48 -3 -3 -47 -3
-48 -61 0 -61 0 6 54 c15 143 143 323 312 437 38 26 49 29 56 18 5 -8 9 -20 9
-28 0 -17 42 21 101 90 l39 47 -82 22 c-46 12 -91 24 -100 26 -15 4 -17 0 -12
-24 6 -28 3 -30 -54 -51 -199 -75 -359 -222 -428 -394 l-32 -79 -4 148 c-3
143 -4 151 -33 203 -57 104 -156 157 -274 149 -83 -6 -139 -35 -199 -103 -72
-82 -72 -81 -72 -598 0 -313 4 -472 11 -497 33 -110 156 -200 272 -200 34 0
79 5 99 10 53 15 116 67 152 125 l31 50 3 203 3 202 -130 0 c-72 0 -131 -3
-131 -7 0 -5 9 -21 20 -38 25 -38 28 -156 4 -215 -20 -50 -55 -63 -86 -32 -20
19 -20 30 -19 409 2 427 3 433 61 433 45 0 60 -31 60 -123 0 -58 -5 -88 -20
-117 l-20 -39 131 -3 132 -3 -2 -105 c-3 -167 35 -304 120 -431 39 -58 127
-144 191 -187 21 -13 38 -28 38 -31 0 -4 -21 -39 -48 -77 l-47 -69 -419 -3
-420 -2 -40 27 -41 28 38 3 37 3 0 140 0 141 -42 -36 c-55 -47 -105 -61 -168
-46 -51 12 -92 47 -109 93 -6 16 -11 104 -11 204 l0 175 37 -7 c53 -10 88 -30
131 -75 20 -22 40 -40 45 -40 4 0 7 75 7 166 l0 166 -39 -35 c-50 -45 -88 -65
-140 -73 l-41 -7 0 163 c0 177 6 203 59 254 15 14 41 30 57 35 43 12 116 -10
170 -52 26 -21 49 -36 50 -34 2 1 0 62 -3 135 l-6 132 -309 0 -310 0 26 -31
c60 -71 59 -63 67 -469 9 -450 2 -764 -17 -800 -8 -14 -24 -37 -36 -52 l-23
-27 -49 35 -48 36 6 76 c18 214 15 202 47 202 34 0 35 7 14 95 -19 78 -20 75
15 75 32 0 36 9 19 42 -9 16 -8 23 2 29 12 7 11 14 -3 38 -16 28 -15 30 7 51
30 29 55 100 55 160 0 104 -54 191 -145 236 -59 28 -67 42 -35 62 11 6 29 30
40 52 16 30 29 42 60 51 22 7 40 16 40 20 0 4 -20 11 -44 14 -32 5 -49 15 -65
36 -52 70 -124 74 -184 10 -26 -28 -47 -41 -76 -46 -57 -10 -58 -20 -1 -34 41
-11 50 -17 55 -41 4 -16 20 -41 37 -55 35 -29 32 -50 -9 -58 -43 -8 -123 -84
-149 -142 -40 -86 -30 -170 32 -251 27 -34 27 -36 11 -64 -21 -35 -21 -40 -2
-40 14 0 14 -3 0 -30 -20 -39 -20 -40 16 -40 24 0 29 -4 25 -17 -3 -10 -8 -36
-11 -58 -4 -22 -9 -52 -11 -67 -5 -24 -2 -27 28 -30 l33 -3 8 -105 c12 -163
13 -159 -63 -190 -47 -19 -66 -32 -68 -47 -2 -11 3 -23 10 -25 7 -3 59 10 116
29 l103 34 57 -34 57 -35 184 6 184 5 -22 -32 -22 -31 -319 0 -318 0 -58 39
c-73 48 -125 63 -179 51 -40 -9 -85 -49 -85 -76 0 -12 -50 -14 -340 -14 l-340
0 -42 27 -42 28 152 3 152 3 0 62 c0 34 3 100 6 147 l7 85 -39 -37 c-74 -71
-156 -84 -232 -38 -60 37 -72 81 -72 279 l0 173 37 -7 c55 -10 93 -32 141 -83
l42 -45 0 174 0 173 -37 -36 c-44 -42 -85 -64 -142 -77 l-41 -9 0 161 c0 180
11 221 73 273 27 23 38 26 89 22 49 -4 68 -11 118 -47 l61 -42 -3 133 -3 133
-424 0 -424 0 2 -100 c2 -136 -12 -150 -28 -28 -18 139 -15 133 -67 133 -42 0
-44 1 -44 29 0 15 -9 40 -21 55 l-20 26 2065 0 2065 0 21 22 c25 27 26 60 2
81 -17 15 -245 17 -2912 19 l-2894 3 -27 -23z m104 -11 c13 -5 29 -22 36 -39
10 -24 9 -36 -5 -71 l-17 -43 85 -86 85 -87 -37 -32 c-21 -18 -41 -33 -46 -33
-5 0 -45 36 -88 79 -71 71 -81 78 -103 70 -38 -14 -68 -11 -97 12 -52 41 -22
129 45 129 23 0 27 5 33 39 9 60 52 84 109 62z m1319 -31 l-17 -30 -610 0
-611 0 -11 30 -11 30 638 0 639 0 -17 -30z m4392 15 c3 -8 -2 -21 -10 -30 -14
-13 -243 -15 -2099 -15 l-2084 0 -16 30 -16 30 2110 0 c1847 0 2110 -2 2115
-15z m-4254 -15 c11 -11 20 -33 20 -50 0 -26 3 -30 29 -30 65 0 102 -66 65
-118 -26 -38 -47 -43 -98 -25 l-46 17 -83 -82 c-45 -45 -85 -82 -88 -82 -4 0
-24 16 -45 36 l-38 37 89 83 88 84 -11 36 c-12 40 -8 59 21 92 26 28 70 29 97
2z m-149 -91 c6 -24 -3 -36 -76 -109 l-83 -83 -33 26 c-59 44 -174 96 -261
117 -198 47 -435 8 -594 -100 -53 -35 -53 -35 -148 59 -53 53 -58 60 -51 89
l7 32 616 -2 616 -3 7 -26z m-418 -94 c105 -34 159 -63 244 -129 77 -60 156
-157 199 -245 31 -65 64 -165 64 -200 0 -19 -4 -22 -22 -17 -13 3 -61 17 -108
29 l-85 23 -41 73 c-168 300 -534 374 -802 162 -54 -43 -121 -133 -147 -199
-14 -35 -22 -41 -63 -52 -26 -6 -76 -20 -111 -31 -35 -10 -66 -17 -68 -15 -3
2 3 35 12 73 35 144 135 304 247 395 91 74 238 140 352 159 90 14 244 2 329
-26z m4719 -11 c5 -3 -4 -21 -19 -39 -26 -33 -28 -33 -38 -15 -10 19 -13 18
-74 -18 -80 -47 -201 -158 -250 -231 -65 -95 -111 -217 -111 -293 l0 -38 100
0 100 0 0 45 c0 33 4 45 15 45 11 0 15 -12 15 -45 l0 -45 45 0 c39 0 45 3 45
21 0 29 53 79 84 79 14 0 37 -10 52 -23 22 -19 28 -34 31 -78 5 -55 -8 -109
-27 -109 -6 0 -8 19 -4 54 6 46 4 56 -15 75 -31 31 -64 26 -105 -14 -20 -19
-36 -39 -36 -45 0 -5 -16 -10 -35 -10 -32 0 -35 -2 -35 -30 0 -39 -19 -39 -26
0 l-6 30 -99 0 -99 0 0 -31 0 -30 -59 2 -60 2 -7 66 c-9 85 15 209 58 298 72
146 227 276 408 340 57 20 76 31 72 42 -4 11 2 12 34 7 21 -5 42 -10 46 -12z
m-3928 -21 c2 -10 8 -43 11 -73 10 -82 35 -204 45 -214 4 -4 16 4 26 19 13 20
18 55 22 151 l5 124 99 0 c59 0 97 -4 93 -9 -8 -14 -35 -483 -35 -613 l0 -108
-220 0 -220 0 0 29 c0 25 5 31 30 36 17 4 30 10 30 15 0 4 -13 13 -30 19 l-30
10 0 189 c0 104 -3 230 -6 280 l-7 92 28 0 c19 0 38 11 59 34 36 40 91 50 100
19z m886 -63 c0 -44 -2 -80 -5 -80 -2 0 -22 9 -43 20 -94 49 -189 27 -246 -58
-34 -52 -45 -126 -46 -316 l0 -129 58 5 c34 4 80 17 110 32 l52 26 0 -76 c0
-72 -1 -76 -17 -62 -35 29 -92 48 -147 48 l-56 0 0 -35 0 -35 -54 0 -54 0 -6
123 c-3 67 -8 212 -11 322 -5 168 -9 206 -25 243 -11 25 -20 46 -20 48 0 2
115 4 255 4 l255 0 0 -80z m1770 -4 l0 -85 -42 24 c-114 65 -217 30 -274 -90
-22 -47 -24 -62 -24 -229 l0 -179 62 7 c36 3 79 16 106 31 24 14 46 25 48 25
2 0 4 -33 4 -74 l0 -74 -52 29 c-41 22 -66 29 -110 29 l-58 0 0 -35 0 -35 -54
0 -54 0 -6 63 c-3 34 -8 177 -12 317 -5 216 -9 262 -25 305 -10 27 -19 51 -19
53 0 1 115 2 255 2 l255 0 0 -84z m459 45 c44 -23 98 -81 117 -127 10 -23 14
-78 14 -179 l0 -145 -86 0 c-78 0 -85 2 -79 18 17 42 18 152 0 197 -18 50 -38
65 -84 65 -44 0 -60 -9 -79 -44 -14 -26 -17 -67 -20 -258 l-4 -228 -72 0 -73
0 -6 98 c-4 53 -7 165 -7 249 0 128 3 161 20 206 30 80 95 140 180 168 38 13
136 2 179 -20z m-2726 -316 c4 -148 7 -410 5 -580 -4 -304 -4 -311 -27 -348
-12 -20 -26 -37 -31 -37 -16 0 -21 74 -27 453 -5 355 8 814 24 841 3 4 15 -7
27 -25 19 -31 21 -54 29 -304z m-603 19 c0 -248 -2 -283 -15 -278 -8 4 -15 18
-15 33 0 74 -72 258 -134 341 l-26 34 81 82 c48 49 87 80 95 77 11 -4 14 -59
14 -289z m-680 120 c92 -21 177 -73 249 -150 34 -36 60 -68 57 -71 -2 -3 -51
0 -107 6 -238 26 -421 24 -677 -6 l-56 -6 35 48 c78 110 240 193 379 194 30 0
84 -6 120 -15z m2700 -316 l-1 -93 -25 29 c-22 25 -26 37 -22 78 5 46 21 78
39 78 5 0 9 -42 9 -92z m240 9 c0 -29 -32 -97 -45 -97 -3 0 -5 42 -5 93 l1 92
24 -28 c16 -17 25 -40 25 -60z m-2778 -7 c193 -18 515 -97 491 -121 -7 -7
-189 -38 -230 -39 -6 0 -13 12 -15 27 -6 48 -40 62 -183 74 -171 15 -665 6
-754 -14 -66 -15 -111 -49 -111 -83 0 -10 -6 -14 -17 -10 -10 2 -43 7 -73 11
-30 3 -80 11 -109 17 l-55 10 56 24 c102 43 302 88 463 103 120 12 416 12 537
1z m41 -90 c76 -6 147 -15 158 -20 16 -9 19 -22 19 -74 0 -210 -147 -394 -370
-462 -76 -23 -184 -18 -276 14 -188 66 -307 206 -336 394 -11 75 -11 79 11
102 13 14 41 28 65 32 130 23 507 30 729 14z m467 -435 c-6 -104 -13 -198 -16
-208 -5 -14 -17 -8 -74 40 -38 32 -69 61 -69 64 -1 4 17 37 39 73 51 84 96
219 105 316 20 214 32 -6 15 -285z m-50 335 c0 -19 -6 -20 -102 -19 l-103 1
95 18 c52 9 98 18 103 19 4 0 7 -8 7 -19z m-1335 -10 c58 -7 57 -7 -32 -9 -79
-1 -93 1 -93 15 0 12 6 14 33 8 17 -4 59 -10 92 -14z m5205 -35 l0 -45 50 0
50 0 0 -49 c0 -56 13 -97 40 -126 18 -19 17 -22 -13 -97 -18 -43 -35 -78 -38
-78 -15 0 -110 129 -139 187 -35 71 -70 183 -70 225 0 27 1 28 60 28 l60 0 0
-45z m119 38 c0 -5 -4 -17 -9 -28 -8 -18 -9 -17 -9 8 -1 15 4 27 9 27 6 0 10
-3 9 -7z m-3638 -570 l21 -73 134 0 c74 0 134 -2 134 -5 0 -3 -7 -17 -16 -30
l-16 -25 -204 0 -204 0 0 30 c0 30 0 30 59 30 l58 0 -13 52 c-8 29 -14 84 -13
123 l0 70 19 -50 c11 -27 29 -83 41 -122z m-358 8 l27 -25 -25 -26 -26 -27 47
-7 c26 -3 71 -6 100 -6 58 0 66 -9 43 -53 -16 -29 -28 -37 -60 -37 -18 0 -28
-6 -32 -19 -5 -21 -14 -21 -99 6 -45 14 -46 15 -36 39 10 22 5 30 -65 101
l-75 77 36 42 37 42 50 -42 c27 -22 62 -52 78 -65z m-879 93 c17 -6 22 -29 9
-37 -5 -3 -19 -1 -32 4 -19 8 -21 12 -11 24 14 17 13 17 34 9z m356 -13 c8
-17 6 -20 -21 -26 -22 -5 -34 -3 -40 6 -13 20 -11 27 9 32 33 9 41 7 52 -12z
m-748 -28 l37 -36 -75 -72 -76 -71 10 -38 c13 -45 3 -77 -30 -100 -48 -34
-108 -4 -108 53 0 26 -4 30 -40 36 -69 12 -94 82 -45 130 28 28 44 30 100 10
l40 -15 65 70 c36 38 69 70 75 70 5 0 26 -17 47 -37z m486 17 c6 0 12 -10 12
-21 0 -19 -4 -21 -37 -14 -46 8 -45 8 -37 29 5 12 13 16 28 12 11 -3 27 -6 34
-6z m179 -6 c7 -18 -12 -34 -39 -34 -11 0 -18 8 -18 19 0 17 12 25 43 30 4 0
10 -6 14 -15z m-79 -16 c3 -15 -4 -18 -32 -18 -34 0 -47 15 -29 34 13 13 58 1
61 -16z m-496 -145 c-44 -40 -51 -43 -107 -43 l-59 0 68 69 69 69 38 -26 39
-27 -48 -42z m518 85 c0 -7 3 -23 6 -35 6 -22 4 -23 -55 -23 -64 0 -67 3 -55
48 6 19 13 22 55 22 32 0 49 -4 49 -12z m64 -9 c20 -12 33 -25 30 -30 -6 -11
-64 -12 -64 -1 0 4 -3 17 -6 30 -8 27 -4 27 40 1z m441 -49 l69 -70 -37 0
c-39 0 -74 14 -140 59 l-39 25 34 28 c18 15 35 28 38 28 3 0 37 -31 75 -70z
m-633 35 c-3 -20 -10 -25 -36 -25 l-31 1 30 24 c38 31 43 31 37 0z m285 -50
c2 -6 -10 -31 -26 -56 -38 -60 -97 -89 -184 -89 -79 0 -160 37 -195 90 -35 53
-19 58 146 53 75 -3 155 0 177 5 48 12 77 11 82 -3z m78 -45 c4 -6 -6 -10 -22
-10 -22 0 -25 2 -13 10 19 12 27 12 35 0z m4053 -151 c-21 -10 -66 -27 -100
-35 -100 -26 -257 -8 -345 40 -26 14 -7 15 227 15 l255 0 -37 -20z"/>
<path d="M624 1071 c-77 -47 -102 -129 -63 -208 35 -68 67 -88 143 -88 53 0
68 4 98 27 22 17 43 46 54 74 15 40 16 52 5 93 -21 79 -76 121 -158 121 -29 0
-60 -7 -79 -19z"/>
<path d="M1074 1071 c-77 -47 -102 -129 -63 -208 35 -68 67 -88 143 -88 53 0
68 4 98 27 22 17 43 46 54 74 15 40 16 52 5 93 -21 79 -76 121 -158 121 -29 0
-60 -7 -79 -19z"/>
<path d="M886 781 c-26 -29 -18 -82 17 -101 24 -13 30 -13 55 0 55 31 34 120
-28 120 -15 0 -35 -9 -44 -19z"/>
<path d="M3002 1785 l36 -35 6 -123 c4 -67 3 -341 -2 -609 l-9 -488 -31 -50
c-18 -28 -32 -53 -32 -56 0 -2 77 -4 170 -4 94 0 170 2 170 5 0 2 -14 24 -30
47 -38 54 -44 91 -35 223 l7 105 37 0 c50 0 125 23 165 51 19 12 49 45 67 72
l34 50 3 321 c2 207 0 334 -7 357 -15 49 -82 123 -134 148 -40 19 -61 21 -247
21 l-204 0 36 -35z m393 -14 c50 -23 76 -46 104 -91 20 -34 21 -46 21 -332 l0
-298 -49 0 -49 0 -4 264 c-3 248 -4 266 -24 293 -27 37 -99 73 -146 73 l-38 0
0 -315 0 -316 -62 3 -63 3 -5 345 c-4 255 -8 351 -18 368 l-13 22 153 0 c127
0 160 -4 193 -19z m-82 -140 c14 -5 34 -22 46 -37 20 -26 21 -36 21 -296 l0
-270 -34 -34 c-19 -19 -43 -34 -54 -34 -11 0 -27 -3 -36 -6 -14 -6 -16 29 -16
346 l0 352 25 -6 c13 -3 35 -10 48 -15z"/>
</g>
</svg>
